<svg xmlns="http://www.w3.org/2000/svg" viewBox="0 0 227.73 161.98"><defs><style>.cls-1{font-size:85.43px;fill:#2e3192;font-family:InkFree, Ink Free;letter-spacing:-0.1em;}.cls-2,.cls-3{fill:none;stroke:#2e3192;stroke-miterlimit:10;}.cls-2{stroke-width:3px;}.cls-3{stroke-width:2px;}</style></defs><title>logo_full_svg</title><g id="Layer_2" data-name="Layer 2"><g id="Layer_1-2" data-name="Layer 1"><text class="cls-1" transform="translate(24.25 94.06)">Docso</text><path class="cls-2" d="M22.57,134.16c24.06-7.52,60.27-15.23,103-10,42,5.08,88,22.3,86.69,28.89-2.22,11-142,19.88-188.45-50.25C7.34,77.85.44,39.66,16.92,19.21c30.5-37.86,132.84-11.72,185.3,47.11,25.1,28.15,12.68,46.35,13.48,45.09"/><path class="cls-3" d="M4.72,139.29c2.72,5.35,5.8,11.43,9.42,11.3,5.05-.17,12.25-12.4,7.54-20.1-4.42-7.23-17.38-7.29-20.1-3.14C-.06,129.86,2,134,4.72,139.29Z"/><path class="cls-3" d="M213.58,131.05c-6-.66-12.74-1.4-13.9-4.83-1.62-4.79,7.29-15.83,16.15-14.14,8.32,1.59,12.95,13.7,10,17.7C224.09,132.2,219.52,131.7,213.58,131.05Z"/></g></g></svg>