<svg xmlns="http://www.w3.org/2000/svg" viewBox="0 0 153.56 171.8"><defs><style>.cls-1{font-size:127.64px;fill:#2e3192;font-family:InkFree, Ink Free;letter-spacing:-0.1em;}.cls-2,.cls-3{fill:none;stroke:#2e3192;stroke-miterlimit:10;}.cls-2{stroke-width:3px;}.cls-3{stroke-width:2px;}</style></defs><title>logo_short_svg</title><g id="Layer_2" data-name="Layer 2"><g id="Layer_1-2" data-name="Layer 1"><text class="cls-1" transform="translate(22.55 115.96)">D</text><path class="cls-2" d="M14.58,144c15.48-7.51,38.77-15.2,66.27-10,27,5.07,56.61,22.27,55.76,28.85-1.43,11-91.37,19.84-121.23-50.17-10.6-24.87-15-63-4.44-83.41,19.62-37.8,85.46-11.7,119.21,47,16.15,28.11,8.15,46.28,8.66,45"/><path class="cls-3" d="M3.39,151.93c1.75,5.35,3.73,11.41,6.07,11.29,3.24-.17,7.87-12.38,4.85-20.07-2.85-7.21-11.19-7.27-12.94-3.13C.32,142.52,1.65,146.61,3.39,151.93Z"/><path class="cls-3" d="M136.12,141.66c-7.21-.13-15.38-.28-16.49-3.66-1.54-4.7,10.28-16.69,20.92-15.77,10,.87,14.53,12.73,10.61,17C148.8,141.89,143.29,141.79,136.12,141.66Z"/></g></g></svg>